<mxfile host="app.diagrams.net" modified="2023-10-19T15:32:43.375Z" agent="Mozilla/5.0 (Windows NT 10.0; Win64; x64) AppleWebKit/537.36 (KHTML, like Gecko) Chrome/118.0.0.0 Safari/537.36 Edg/118.0.2088.46" etag="SGLk73U50RA-uoqXkrcq" version="22.0.5" type="device">
  <diagram name="第 1 页" id="oTgaZx2ObL2fwK0BeYJO">
    <mxGraphModel dx="1426" dy="793" grid="1" gridSize="10" guides="1" tooltips="1" connect="1" arrows="1" fold="1" page="1" pageScale="1" pageWidth="827" pageHeight="1169" math="0" shadow="0">
      <root>
        <mxCell id="0" />
        <mxCell id="1" parent="0" />
        <mxCell id="lXxSHWC21x2mztbamWsk-1" value="" style="outlineConnect=0;dashed=0;verticalLabelPosition=bottom;verticalAlign=top;align=center;html=1;shape=mxgraph.aws3.event_time_based;fillColor=#759C3E;gradientColor=none;" vertex="1" parent="1">
          <mxGeometry x="128.95" y="585" width="63" height="82.5" as="geometry" />
        </mxCell>
        <mxCell id="lXxSHWC21x2mztbamWsk-2" value="" style="image;aspect=fixed;html=1;points=[];align=center;fontSize=12;image=img/lib/azure2/other/Windows_Notification_Services.svg;" vertex="1" parent="1">
          <mxGeometry x="630" y="74" width="120" height="120" as="geometry" />
        </mxCell>
        <mxCell id="lXxSHWC21x2mztbamWsk-4" value="" style="verticalLabelPosition=bottom;verticalAlign=top;html=1;shape=mxgraph.basic.frame;dx=10;whiteSpace=wrap;" vertex="1" parent="1">
          <mxGeometry x="388.5" y="450" width="100" height="60" as="geometry" />
        </mxCell>
        <mxCell id="lXxSHWC21x2mztbamWsk-5" value="" style="verticalLabelPosition=bottom;verticalAlign=top;html=1;shape=mxgraph.basic.frame;dx=10;whiteSpace=wrap;" vertex="1" parent="1">
          <mxGeometry x="388.5" y="530" width="100" height="60" as="geometry" />
        </mxCell>
        <mxCell id="lXxSHWC21x2mztbamWsk-6" value="" style="verticalLabelPosition=bottom;verticalAlign=top;html=1;shape=mxgraph.basic.frame;dx=10;whiteSpace=wrap;" vertex="1" parent="1">
          <mxGeometry x="388.5" y="610" width="100" height="60" as="geometry" />
        </mxCell>
        <mxCell id="lXxSHWC21x2mztbamWsk-7" value="&lt;font style=&quot;font-size: 16px;&quot;&gt;0-16ms&lt;/font&gt;" style="text;html=1;align=center;verticalAlign=middle;resizable=0;points=[];autosize=1;strokeColor=none;fillColor=none;" vertex="1" parent="1">
          <mxGeometry x="494.5" y="458" width="80" height="30" as="geometry" />
        </mxCell>
        <mxCell id="lXxSHWC21x2mztbamWsk-8" value="&lt;font style=&quot;font-size: 16px;&quot;&gt;17-32ms&lt;/font&gt;" style="text;html=1;align=center;verticalAlign=middle;resizable=0;points=[];autosize=1;strokeColor=none;fillColor=none;" vertex="1" parent="1">
          <mxGeometry x="489.5" y="538" width="90" height="30" as="geometry" />
        </mxCell>
        <mxCell id="lXxSHWC21x2mztbamWsk-9" value="&lt;font style=&quot;font-size: 16px;&quot;&gt;......&lt;/font&gt;" style="text;html=1;align=center;verticalAlign=middle;resizable=0;points=[];autosize=1;strokeColor=none;fillColor=none;" vertex="1" parent="1">
          <mxGeometry x="514.5" y="625" width="50" height="30" as="geometry" />
        </mxCell>
        <mxCell id="lXxSHWC21x2mztbamWsk-12" value="frame 1" style="text;html=1;align=center;verticalAlign=middle;resizable=0;points=[];autosize=1;strokeColor=none;fillColor=none;" vertex="1" parent="1">
          <mxGeometry x="408.5" y="465" width="60" height="30" as="geometry" />
        </mxCell>
        <mxCell id="lXxSHWC21x2mztbamWsk-13" value="frame 2" style="text;html=1;align=center;verticalAlign=middle;resizable=0;points=[];autosize=1;strokeColor=none;fillColor=none;" vertex="1" parent="1">
          <mxGeometry x="408.5" y="545" width="60" height="30" as="geometry" />
        </mxCell>
        <mxCell id="lXxSHWC21x2mztbamWsk-14" value="" style="outlineConnect=0;dashed=0;verticalLabelPosition=bottom;verticalAlign=top;align=center;html=1;shape=mxgraph.aws3.android;fillColor=#96BF3D;gradientColor=none;" vertex="1" parent="1">
          <mxGeometry x="373.25" y="110" width="73.5" height="84" as="geometry" />
        </mxCell>
        <mxCell id="lXxSHWC21x2mztbamWsk-15" value="" style="endArrow=classic;html=1;rounded=0;" edge="1" parent="1">
          <mxGeometry width="50" height="50" relative="1" as="geometry">
            <mxPoint x="438.5" y="440" as="sourcePoint" />
            <mxPoint x="208.5" y="400" as="targetPoint" />
          </mxGeometry>
        </mxCell>
        <mxCell id="lXxSHWC21x2mztbamWsk-16" value="&lt;font style=&quot;font-size: 16px;&quot;&gt;Renderer&lt;/font&gt;" style="text;html=1;align=center;verticalAlign=middle;resizable=0;points=[];autosize=1;strokeColor=none;fillColor=none;" vertex="1" parent="1">
          <mxGeometry x="360" y="68" width="90" height="30" as="geometry" />
        </mxCell>
        <mxCell id="lXxSHWC21x2mztbamWsk-17" value="" style="endArrow=classic;html=1;rounded=0;" edge="1" parent="1">
          <mxGeometry width="50" height="50" relative="1" as="geometry">
            <mxPoint x="460" y="160" as="sourcePoint" />
            <mxPoint x="620" y="160" as="targetPoint" />
          </mxGeometry>
        </mxCell>
        <mxCell id="lXxSHWC21x2mztbamWsk-18" value="&lt;font style=&quot;font-size: 16px;&quot;&gt;Screen&lt;/font&gt;" style="text;html=1;align=center;verticalAlign=middle;resizable=0;points=[];autosize=1;strokeColor=none;fillColor=none;" vertex="1" parent="1">
          <mxGeometry x="655" y="210" width="70" height="30" as="geometry" />
        </mxCell>
        <mxCell id="lXxSHWC21x2mztbamWsk-19" value="&lt;font style=&quot;font-size: 16px;&quot;&gt;EventListener&lt;/font&gt;" style="text;html=1;align=center;verticalAlign=middle;resizable=0;points=[];autosize=1;strokeColor=none;fillColor=none;" vertex="1" parent="1">
          <mxGeometry x="100.44999999999999" y="680" width="120" height="30" as="geometry" />
        </mxCell>
        <mxCell id="lXxSHWC21x2mztbamWsk-20" value="" style="pointerEvents=1;shadow=0;dashed=0;html=1;strokeColor=none;fillColor=#EF8F21;labelPosition=center;verticalLabelPosition=bottom;verticalAlign=top;align=center;outlineConnect=0;shape=mxgraph.veeam.dr_site;" vertex="1" parent="1">
          <mxGeometry x="110" y="330" width="90.9" height="84.8" as="geometry" />
        </mxCell>
        <mxCell id="lXxSHWC21x2mztbamWsk-21" value="&lt;font style=&quot;font-size: 16px;&quot;&gt;State Machine&lt;/font&gt;" style="text;html=1;align=center;verticalAlign=middle;resizable=0;points=[];autosize=1;strokeColor=none;fillColor=none;" vertex="1" parent="1">
          <mxGeometry x="100.45" y="435" width="130" height="30" as="geometry" />
        </mxCell>
        <mxCell id="lXxSHWC21x2mztbamWsk-22" value="" style="endArrow=classic;html=1;rounded=0;" edge="1" parent="1">
          <mxGeometry width="50" height="50" relative="1" as="geometry">
            <mxPoint x="160" y="320" as="sourcePoint" />
            <mxPoint x="370" y="170" as="targetPoint" />
          </mxGeometry>
        </mxCell>
        <mxCell id="lXxSHWC21x2mztbamWsk-23" value="" style="endArrow=classic;html=1;rounded=0;" edge="1" parent="1">
          <mxGeometry width="50" height="50" relative="1" as="geometry">
            <mxPoint x="159.95" y="575" as="sourcePoint" />
            <mxPoint x="159.95" y="465" as="targetPoint" />
          </mxGeometry>
        </mxCell>
        <mxCell id="lXxSHWC21x2mztbamWsk-24" value="..." style="text;html=1;align=center;verticalAlign=middle;resizable=0;points=[];autosize=1;strokeColor=none;fillColor=none;" vertex="1" parent="1">
          <mxGeometry x="423.5" y="625" width="30" height="30" as="geometry" />
        </mxCell>
        <mxCell id="lXxSHWC21x2mztbamWsk-25" value="&lt;font style=&quot;font-size: 16px;&quot;&gt;Frame State&lt;/font&gt;" style="text;html=1;align=center;verticalAlign=middle;resizable=0;points=[];autosize=1;strokeColor=none;fillColor=none;" vertex="1" parent="1">
          <mxGeometry x="170" y="194" width="110" height="30" as="geometry" />
        </mxCell>
        <mxCell id="lXxSHWC21x2mztbamWsk-29" value="&lt;font style=&quot;font-size: 16px;&quot;&gt;Event&lt;/font&gt;" style="text;html=1;align=center;verticalAlign=middle;resizable=0;points=[];autosize=1;strokeColor=none;fillColor=none;" vertex="1" parent="1">
          <mxGeometry x="180" y="508" width="60" height="30" as="geometry" />
        </mxCell>
      </root>
    </mxGraphModel>
  </diagram>
</mxfile>
